<svg width="27" height="27" viewBox="0 0 27 27" fill="none" xmlns="http://www.w3.org/2000/svg">
<path d="M7.90667 26.6443C7.22089 26.6443 6.63533 26.4002 6.15 25.912C5.66489 25.4236 5.42233 24.8366 5.42233 24.151C5.42233 23.4652 5.66656 22.8797 6.155 22.3943C6.64322 21.9092 7.23022 21.6667 7.916 21.6667C8.60178 21.6667 9.18722 21.9109 9.67233 22.3993C10.1574 22.8876 10.4 23.4746 10.4 24.1603C10.4 24.8461 10.1559 25.4316 9.66767 25.9167C9.17922 26.4018 8.59222 26.6443 7.90667 26.6443ZM21.24 26.6443C20.5542 26.6443 19.9687 26.4002 19.4833 25.912C18.9982 25.4236 18.7557 24.8366 18.7557 24.151C18.7557 23.4652 18.9999 22.8797 19.4883 22.3943C19.9766 21.9092 20.5636 21.6667 21.2493 21.6667C21.9351 21.6667 22.5206 21.9109 23.0057 22.3993C23.4908 22.8876 23.7333 23.4746 23.7333 24.1603C23.7333 24.8461 23.4892 25.4316 23.001 25.9167C22.5126 26.4018 21.9256 26.6443 21.24 26.6443ZM6.378 4.86667L9.889 12.1557H19.4L23.4 4.86667H6.378ZM5.289 2.64433H24.935C25.4457 2.64433 25.8342 2.87589 26.1007 3.339C26.3669 3.80189 26.3704 4.26667 26.1113 4.73333L21.5333 12.9777C21.2889 13.4074 20.9681 13.7482 20.571 14C20.1739 14.2518 19.7391 14.3777 19.2667 14.3777H9.22233L7.489 17.5777H23.7333V19.8H7.689C6.73344 19.8 6.03344 19.4463 5.589 18.739C5.14456 18.0314 5.14089 17.274 5.578 16.4667L7.6 12.7557L2.62233 2.22233H0V0H4.04467L5.289 2.64433Z" fill="black"/>
<path d="M6.378 4.86667L9.889 12.1557H19.4L23.4 4.86667H6.378Z" fill="black"/>
</svg>
