<svg width="27" height="27" viewBox="0 0 27 27" fill="none" xmlns="http://www.w3.org/2000/svg">
<path d="M4.86667 20.6C6.17778 19.6593 7.52589 18.9316 8.911 18.4167C10.2963 17.9018 11.7704 17.6443 13.3333 17.6443C14.8962 17.6443 16.374 17.9018 17.7667 18.4167C19.1593 18.9316 20.5112 19.6593 21.8223 20.6C22.7334 19.4962 23.3982 18.3443 23.8167 17.1443C24.2351 15.9443 24.4443 14.674 24.4443 13.3333C24.4443 10.2 23.3759 7.56478 21.239 5.42767C19.1019 3.29078 16.4667 2.22233 13.3333 2.22233C10.2 2.22233 7.56478 3.29078 5.42767 5.42767C3.29078 7.56478 2.22233 10.2 2.22233 13.3333C2.22233 14.674 2.43522 15.9443 2.861 17.1443C3.287 18.3443 3.95556 19.4962 4.86667 20.6ZM13.3293 14.4443C12.0358 14.4443 10.9463 14.0004 10.061 13.1127C9.17589 12.2247 8.73333 11.1339 8.73333 9.84033C8.73333 8.54678 9.17733 7.45744 10.0653 6.57233C10.9531 5.687 12.0438 5.24433 13.3373 5.24433C14.6309 5.24433 15.7203 5.68833 16.6057 6.57633C17.4908 7.46433 17.9333 8.55511 17.9333 9.84867C17.9333 11.1422 17.4893 12.2316 16.6013 13.1167C15.7136 14.0018 14.6229 14.4443 13.3293 14.4443ZM13.3437 26.6667C11.5072 26.6667 9.77789 26.3167 8.15567 25.6167C6.53344 24.9167 5.11856 23.963 3.911 22.7557C2.70367 21.5481 1.75 20.135 1.05 18.5163C0.35 16.8977 0 15.168 0 13.3273C0 11.4869 0.35 9.75922 1.05 8.14433C1.75 6.52967 2.70367 5.11856 3.911 3.911C5.11856 2.70367 6.53167 1.75 8.15033 1.05C9.769 0.35 11.4987 0 13.3393 0C15.1798 0 16.9074 0.35 18.5223 1.05C20.137 1.75 21.5481 2.70367 22.7557 3.911C23.963 5.11856 24.9167 6.52989 25.6167 8.145C26.3167 9.76033 26.6667 11.4863 26.6667 13.323C26.6667 15.1594 26.3167 16.8888 25.6167 18.511C24.9167 20.1332 23.963 21.5481 22.7557 22.7557C21.5481 23.963 20.1368 24.9167 18.5217 25.6167C16.9063 26.3167 15.1803 26.6667 13.3437 26.6667ZM13.3333 24.4443C14.5407 24.4443 15.7073 24.2684 16.8333 23.9167C17.9593 23.5649 19.0446 22.9852 20.089 22.1777C19.0446 21.4297 17.9557 20.8574 16.8223 20.461C15.689 20.0648 14.526 19.8667 13.3333 19.8667C12.1407 19.8667 10.9777 20.0648 9.84433 20.461C8.711 20.8574 7.62211 21.4297 6.57767 22.1777C7.62211 22.9852 8.70733 23.5649 9.83333 23.9167C10.9593 24.2684 12.126 24.4443 13.3333 24.4443ZM13.3333 12.2223C14.0296 12.2223 14.5999 12.0001 15.0443 11.5557C15.4888 11.1112 15.711 10.5408 15.711 9.84433C15.711 9.14811 15.4888 8.57778 15.0443 8.13333C14.5999 7.68889 14.0296 7.46667 13.3333 7.46667C12.6371 7.46667 12.0668 7.68889 11.6223 8.13333C11.1779 8.57778 10.9557 9.14811 10.9557 9.84433C10.9557 10.5408 11.1779 11.1112 11.6223 11.5557C12.0668 12.0001 12.6371 12.2223 13.3333 12.2223Z" fill="black"/>
<path d="M13.3333 24.4443C14.5407 24.4443 15.7073 24.2684 16.8333 23.9167C17.9593 23.5649 19.0446 22.9852 20.089 22.1777C19.0446 21.4297 17.9557 20.8574 16.8223 20.461C15.689 20.0648 14.526 19.8667 13.3333 19.8667C12.1407 19.8667 10.9777 20.0648 9.84433 20.461C8.711 20.8574 7.62211 21.4297 6.57767 22.1777C7.62211 22.9852 8.70733 23.5649 9.83333 23.9167C10.9593 24.2684 12.126 24.4443 13.3333 24.4443Z" fill="black"/>
<path d="M13.3333 12.2223C14.0296 12.2223 14.5999 12.0001 15.0443 11.5557C15.4888 11.1112 15.711 10.5408 15.711 9.84433C15.711 9.14811 15.4888 8.57778 15.0443 8.13333C14.5999 7.68889 14.0296 7.46667 13.3333 7.46667C12.6371 7.46667 12.0668 7.68889 11.6223 8.13333C11.1779 8.57778 10.9557 9.14811 10.9557 9.84433C10.9557 10.5408 11.1779 11.1112 11.6223 11.5557C12.0668 12.0001 12.6371 12.2223 13.3333 12.2223Z" fill="black"/>
</svg>
